<?xml version="1.0" encoding="UTF-8"?>
<svg id="Camada_1" data-name="Camada 1" xmlns="http://www.w3.org/2000/svg" viewBox="0 0 1598.72 433.13">
  <defs>
    <style>
      .cls-1 {
        fill: #2fac66;
      }

      .cls-2 {
        font-family: NeueHaasDisplay-Roman, 'Neue Haas Grotesk Display Pro';
        letter-spacing: 0em;
      }

      .cls-2, .cls-3 {
        font-size: 180px;
      }

      .cls-2, .cls-3, .cls-4 {
        fill: #29235c;
      }

      .cls-3 {
        font-family: NeueHaasDisplay-Mediu, 'Neue Haas Grotesk Display Pro';
        letter-spacing: .01em;
      }
    </style>
  </defs>
  <text class="cls-2" transform="translate(386.9 287.72) scale(1.07 1)"><tspan x="0" y="0">ABRIGOS</tspan></text>
  <text class="cls-3" transform="translate(1260.89 287.65)"><tspan x="0" y="0">RS</tspan></text>
  <path class="cls-4" d="m319.73,177.63l-90.72-69.02c-6.54-4.97-15.56-4.83-21.93.34l-84.84,68.85h0c-2.96,2.41-4.08,6.43-2.81,10.02s4.69,6,8.5,6h21.32v45.09c5.01-.13,10.01.54,14.81,1.99l.32.1v-47.17h109.3v18.18l2.17-1.24c3.9-2.23,7.97-4.16,12.17-5.77v-11.17h26.24c3.88,0,7.31-2.47,8.55-6.14,1.24-3.67,0-7.72-3.09-10.06Zm-168.82-.98l66.99-54.37c.21-.17.5-.17.71-.01l71.47,54.38h-139.17Z"/>
  <path class="cls-1" d="m159.39,249.91c9.2,2.63,15.55,8.45,20.57,15.93,5.11,7.61,8.68,15.97,11.51,24.64.7,2.16,1.3,2.19,2.75.63,11.14-11.97,22.71-23.51,34.92-34.39,12.44-11.09,25.52-21.33,39.68-30.19,18.89-11.83,39.41-19.64,60.97-24.83,14.1-3.4,28.28-6.46,42.42-9.69,1.52-.35,3.23-.84,4.78-.57.64.11,1.25.49,1.4,1.32.15.81-.79,1.59-1.37,1.91-1.52.84-2.74,1.37-4.34,2.02-31.66,12.87-60.93,29.85-87.84,50.91-18.24,14.27-35.14,29.99-51.05,46.8-9.17,9.68-17.78,19.86-26.49,29.93-4.28,4.95-8.16,10.24-12.17,15.42-2.93,3.79-6.36,5.88-11.5,6.21-3.52.2-7.91.34-11.86.41-4,.07-5.55-1.19-6.05-5.06-.53-4.09-.98-8.19-1.5-12.29-3-23.33-11-44.55-26.05-62.87-1.84-2.24-3.79-4.39-5.54-6.69-1.92-2.51-1.77-3.87.86-5.44,6.3-3.75,13.18-5.47,20.51-4.85,1.89.16,3.89.01,5.4.73Z"/>
</svg>