<?xml version="1.0" encoding="utf-8"?>
<!-- Generator: Adobe Illustrator 16.0.0, SVG Export Plug-In . SVG Version: 6.00 Build 0)  -->
<!DOCTYPE svg PUBLIC "-//W3C//DTD SVG 1.1//EN" "http://www.w3.org/Graphics/SVG/1.1/DTD/svg11.dtd">
<svg version="1.1" id="Layer_1" xmlns="http://www.w3.org/2000/svg"
     xmlns:xlink="http://www.w3.org/1999/xlink" x="0px" y="0px" width="80px" height="40px"
     viewBox="0 0 80 40" enable-background="new 0 0 80 40" xml:space="preserve">
  <g>
    <path fill="#1351b4"
          d="M14.481,33.13c0-0.188-0.033-0.357-0.099-0.512c-0.066-0.153-0.156-0.286-0.27-0.398
		c-0.113-0.111-0.248-0.198-0.403-0.261c-0.156-0.062-0.325-0.093-0.509-0.093h-1.802v2.51h1.813c0.179,0,0.346-0.029,0.499-0.09
		c0.154-0.061,0.288-0.146,0.401-0.253c0.113-0.108,0.203-0.239,0.27-0.393C14.448,33.486,14.481,33.316,14.481,33.13z" />
    <path fill="#1351b4"
          d="M67.076,33.13c0-0.188-0.033-0.357-0.098-0.512c-0.066-0.153-0.156-0.286-0.27-0.398
		c-0.113-0.111-0.248-0.198-0.404-0.261c-0.156-0.062-0.324-0.093-0.508-0.093h-1.803v2.51h1.812c0.18,0,0.348-0.029,0.5-0.09
		c0.154-0.061,0.289-0.146,0.402-0.253c0.113-0.108,0.203-0.239,0.27-0.393C67.043,33.486,67.076,33.316,67.076,33.13z" />
    <polygon fill="#1351b4"
             points="74.303,32.481 74.297,32.481 74.254,32.674 73.061,35.558 75.533,35.558 74.346,32.674 	" />
    <path fill="#1351b4" d="M0,29v11h80V29H0z M7.49,34.217c-0.126,0.308-0.304,0.573-0.532,0.797c-0.229,0.224-0.501,0.396-0.816,0.52
		c-0.314,0.122-0.659,0.184-1.032,0.184H3.308v2.438H1.939v-7.471h3.147c0.377,0,0.725,0.063,1.041,0.189
		c0.317,0.127,0.591,0.302,0.821,0.525c0.23,0.223,0.41,0.489,0.538,0.799c0.129,0.31,0.192,0.646,0.192,1.008
		C7.68,33.572,7.617,33.909,7.49,34.217z M14.448,38.155l-1.467-2.598h-1.582v2.598h-1.367v-7.471h3.225
		c0.377,0,0.724,0.059,1.041,0.176c0.316,0.117,0.59,0.283,0.82,0.497c0.231,0.215,0.411,0.472,0.539,0.772
		c0.128,0.3,0.192,0.632,0.192,0.994c0,0.271-0.035,0.524-0.104,0.761s-0.17,0.449-0.3,0.64s-0.287,0.357-0.472,0.5
		c-0.186,0.143-0.392,0.259-0.618,0.347l1.664,2.784H14.448z M23.697,38.155h-5.169v-7.471h5.119v1.187h-3.752v2h3.241v1.176h-3.241
		v1.928h3.802V38.155z M31.475,31.871h-3.752v2.22h3.241v1.181h-3.241v2.884h-1.368v-7.471h5.12V31.871z M38.993,38.155h-5.169
		v-7.471h5.12v1.187h-3.752v2h3.241v1.176h-3.241v1.928h3.801V38.155z M43.031,38.155h-1.369v-7.471h1.369V38.155z M51.104,31.866
		h-2.225v6.289h-1.367v-6.289h-2.219v-1.182h5.811V31.866z M59.674,35.267c0,0.446-0.078,0.856-0.23,1.23
		c-0.154,0.373-0.371,0.695-0.652,0.967c-0.279,0.271-0.615,0.481-1.008,0.632c-0.391,0.149-0.826,0.225-1.301,0.225
		c-0.451,0-0.871-0.071-1.258-0.214c-0.389-0.143-0.727-0.347-1.014-0.609c-0.289-0.265-0.514-0.585-0.676-0.962
		c-0.164-0.377-0.244-0.8-0.244-1.269v-4.582h1.361v4.582c0,0.264,0.041,0.509,0.121,0.735c0.08,0.228,0.197,0.426,0.352,0.597
		c0.154,0.17,0.344,0.304,0.572,0.4c0.227,0.098,0.488,0.146,0.785,0.146c0.285,0,0.541-0.048,0.768-0.146
		c0.229-0.097,0.42-0.229,0.574-0.396c0.156-0.166,0.275-0.363,0.357-0.59c0.082-0.228,0.123-0.473,0.123-0.736v-4.593h1.369V35.267
		z M67.043,38.155l-1.467-2.598h-1.582v2.598h-1.367v-7.471h3.225c0.377,0,0.725,0.059,1.041,0.176s0.59,0.283,0.82,0.497
		c0.232,0.215,0.412,0.472,0.539,0.772c0.129,0.3,0.193,0.632,0.193,0.994c0,0.271-0.035,0.524-0.105,0.761
		c-0.068,0.236-0.17,0.449-0.299,0.64c-0.131,0.19-0.287,0.357-0.473,0.5s-0.391,0.259-0.617,0.347l1.664,2.784H67.043z
		 M76.609,38.155l-0.588-1.422h-3.443l-0.588,1.422h-1.445l3.109-7.476h1.297l3.109,7.476H76.609z" />
    <path fill="#1351b4" d="M5.941,32.262c-0.115-0.121-0.251-0.217-0.406-0.288c-0.156-0.072-0.323-0.107-0.503-0.107H3.308v2.67h1.73
		c0.179,0,0.347-0.034,0.502-0.103c0.156-0.067,0.291-0.16,0.404-0.279s0.203-0.26,0.269-0.421c0.066-0.161,0.1-0.335,0.1-0.521
		s-0.033-0.361-0.1-0.524C6.147,32.524,6.057,32.383,5.941,32.262z" />
  </g>
  <g>
    <path fill="#1351b4"
          d="M71.267,9.35c-0.097-0.219,0.049-0.469,0.09-0.61c0.065-0.216,0.065-0.368-0.033-0.373
		c-0.066-0.004-0.145,0.049-0.193,0.123c-0.024,0.036-0.036,0.041-0.023-0.017c0.043-0.194,0.152-0.482,0.435-0.378
		c0.239,0.089,0.135,0.426,0.052,0.591c-0.067,0.13-0.271,0.368-0.236,0.581c0.037,0.223,0.487,0.205,0.882,0.371
		c0.41,0.173,0.559,0.553,0.852,0.595c0.02,0,0.039-0.001,0.058-0.004c0.003,0,0.008-0.002,0.011-0.003
		c0.016-0.002,0.03-0.007,0.045-0.012c0.004-0.001,0.009-0.004,0.013-0.005c0.014-0.005,0.026-0.011,0.04-0.017
		c0.007-0.004,0.015-0.009,0.021-0.013c0.009-0.006,0.019-0.01,0.027-0.016c0.012-0.009,0.022-0.018,0.034-0.027
		c0.004-0.003,0.008-0.006,0.013-0.008c0.165-0.141,0.271-0.382,0.327-0.501c0.218-0.465,0.398-0.908,0.498-1.386
		c0.138-0.657,0.151-1.353,0.051-1.978c-0.123-0.77-0.484-1.489-0.956-2.159c-0.511-0.721-1.261-1.304-2.229-1.733
		c-0.731-0.324-1.596-0.562-2.568-0.709c-0.146-0.022-0.29-0.041-0.432-0.058c-0.078-0.009-0.155-0.017-0.232-0.025
		c-0.058-0.006-0.117-0.012-0.175-0.019c-0.108-0.01-0.215-0.017-0.319-0.024c-0.021-0.001-0.041-0.003-0.062-0.004
		c-0.119-0.007-0.236-0.015-0.349-0.02h-0.008c-0.031,0.037-0.216,0.423-0.244,0.67c-0.026,0.231-0.092,0.844-0.331,0.959
		c-0.315,0.153-0.472,0.008-0.626-0.065c-0.098-0.046-0.284-0.09-0.359-0.004c-0.11,0.126,0.02,0.265,0.083,0.318
		C65.225,3.415,65.042,3,65.24,2.836c0.126-0.104,0.251-0.071,0.577,0.144c0.337,0.221,0.473,0.05,0.521-0.046
		c0.136-0.267,0.192-0.848,0.23-1.096c0.038-0.25,0.301-0.5,0.349-0.792c0.003-0.023,0.007-0.048,0.007-0.068
		c0-0.218-0.161-0.337-0.218-0.378C66.078,0.157,64.813,0,64.303,0c-0.468,0-1.774,0.157-2.403,0.6
		c-0.057,0.041-0.218,0.16-0.218,0.378c0,0.018,0.003,0.045,0.006,0.068c0.048,0.292,0.311,0.542,0.35,0.792
		c0.037,0.249,0.094,0.829,0.229,1.096c0.05,0.097,0.186,0.268,0.521,0.046c0.326-0.215,0.452-0.248,0.577-0.144
		c0.198,0.164,0.017,0.578-0.181,0.55c0.063-0.054,0.193-0.192,0.083-0.318c-0.075-0.086-0.262-0.042-0.358,0.004
		c-0.155,0.074-0.312,0.218-0.627,0.065c-0.238-0.115-0.304-0.728-0.33-0.959c-0.028-0.247-0.214-0.633-0.245-0.67
		c-0.115,0.005-0.236,0.012-0.359,0.02c-0.013,0.001-0.024,0.002-0.037,0.003c-0.111,0.007-0.225,0.016-0.342,0.026
		c-0.053,0.006-0.106,0.012-0.159,0.017c-0.082,0.007-0.163,0.015-0.248,0.026c-0.141,0.017-0.285,0.035-0.431,0.058
		c-0.973,0.146-1.837,0.385-2.568,0.709c-0.968,0.429-1.717,1.012-2.228,1.733c-0.473,0.671-0.834,1.389-0.957,2.159
		c-0.101,0.625-0.087,1.321,0.051,1.978c0.101,0.478,0.279,0.922,0.499,1.386c0.082,0.171,0.271,0.606,0.589,0.606
		c0.293-0.042,0.44-0.422,0.852-0.595c0.395-0.166,0.844-0.148,0.882-0.371c0.034-0.213-0.17-0.451-0.236-0.581
		c-0.084-0.165-0.187-0.502,0.052-0.591c0.282-0.104,0.39,0.184,0.434,0.378c0.013,0.058,0.001,0.053-0.023,0.018
		c-0.049-0.074-0.127-0.127-0.192-0.123c-0.1,0.005-0.1,0.157-0.034,0.374c0.043,0.141,0.187,0.391,0.091,0.61
		c-0.09,0.204-0.459,0.187-0.851,0.405c-0.358,0.2-0.565,0.429-0.818,0.546c-0.009,0.191-0.043,0.374-0.109,0.534
		c0.027,0.025,0.108,0.075,0.178,0.115c0.082,0.05,0.166,0.1,0.229,0.149c0.07,0.055,0.122,0.116,0.09,0.324
		c-0.03,0.19-0.21,0.353-0.352,0.288c-0.077-0.034-0.14-0.067-0.166-0.079c-0.038-0.006-0.074-0.008-0.083-0.001
		c-0.015,0.011-0.004,0.033,0.028,0.054c0.03,0.021,0.155,0.149,0.189,0.162c0.034,0.011-0.054,0.147,0.079,0.324
		c-0.125,0.028-0.408-0.146-0.322-0.56c0.087-0.414,0.359-0.223,0.312-0.076c-0.012,0.033-0.024,0.057-0.035,0.076
		c0.024,0.03,0.074,0.049,0.128,0.014c0.037-0.025,0.104-0.096,0.128-0.227c0.018-0.093-0.031-0.181-0.065-0.206
		c-0.057-0.044-0.139-0.094-0.217-0.141c-0.071-0.042-0.124-0.081-0.17-0.113h-0.001c-0.126-0.104-0.253-0.149-0.369-0.149
		c-0.324,0-0.56,0.347-0.423,0.692c0.076,0.192,0.338,0.251,0.472,0.378c0.17,0.161,0.194,0.37,0.501,0.432
		c0.018,0.003,0.034,0.006,0.051,0.006c0.298,0,0.536-0.528,0.632-0.951l0.003,0.002c-0.043,0.168-0.086,0.364-0.12,0.579
		c-0.046,0.289-0.053,0.571-0.021,0.835c0.04,0.327,0.093,0.636,0.251,0.916c0.09,0.161,0.26,0.261,0.442,0.261
		c0.009,0,0.018,0,0.027-0.002l0.355-0.083c0.2-0.01,0.341,0.029,0.465-0.265c0.013-0.03,0.07-0.19,0.089-0.4
		c0.003-0.031,0.006-0.062,0.007-0.093c0.002-0.02,0.004-0.035,0.004-0.052c0.002-0.015,0.002-0.028,0.003-0.042
		c0-0.021,0.001-0.041,0.001-0.062c0-0.009-0.001-0.018-0.001-0.026c0-0.022-0.001-0.045-0.003-0.066
		c-0.002-0.004-0.002-0.009-0.002-0.014c-0.014-0.102-0.049-0.185-0.126-0.232c-0.033-0.018-0.115-0.053-0.207-0.034
		c-0.007,0.003-0.014,0.006-0.021,0.007c-0.004,0.001-0.007,0.002-0.011,0.003c-0.014,0.005-0.026,0.011-0.04,0.019
		c-0.153,0.09-0.239,0.46-0.119,0.759c0.014,0.034,0.2-0.005,0.168-0.047c-0.017-0.022-0.145-0.217-0.073-0.455
		c0.034-0.112,0.103-0.235,0.222-0.159c0.123,0.076,0.117,0.332,0.095,0.326c-0.023-0.005-0.038-0.103-0.123-0.038
		c-0.062,0.045-0.062,0.202-0.047,0.283c0.014,0.08,0.041,0.123,0.007,0.128s-0.209,0.04-0.202,0.055
		c0.017,0.047,0.1,0.031,0.152,0.023c0.053-0.007,0.034,0.063,0.068,0.075s0.042-0.059,0.069-0.055
		c0.026,0.003,0.009,0.042-0.006,0.093c-0.015,0.049-0.039,0.075-0.138,0.063c-0.155-0.018-0.335-0.026-0.361-1.159v-0.003v-0.003
		c0-0.03,0.002-0.06,0.003-0.091c0.002-0.031,0.002-0.064,0.005-0.097c0.003-0.029,0.006-0.057,0.01-0.086
		c0.005-0.037,0.01-0.073,0.016-0.109c0.003-0.022,0.007-0.043,0.01-0.063c0.012-0.06,0.025-0.116,0.039-0.17
		c0.016-0.063,0.034-0.125,0.052-0.183l0.004,0.002c0.039-0.102,0.161-0.449,0.156-0.463c0.391-1.311,0.247-2.279,0.198-2.543
		c-0.007-0.035-0.014-0.069-0.021-0.106c-0.06-0.249-0.178-0.518-0.397-0.598h-0.003c-0.118-0.027-0.392,0.003-0.493,0.218
		c-0.153,0.326,0.136,0.732,0.169,0.796c0.02,0.036,0.037,0.074,0.023,0.078c-0.111,0.035-0.394-0.586-0.494-0.938
		c-0.249-0.833-0.277-1.867,0.443-2.887c0.731-1.036,2.313-1.467,3.512-1.648c0.791-0.119,1.538-0.148,2.082-0.148
		c0.133,0,0.252,0.002,0.356,0.005c0.073,0.001,0.153,0.008,0.231,0.008c0.021,0,0.041-0.002,0.061-0.002
		c0.229-0.018,0.389-0.233,0.389-0.496c0-0.275-0.178-0.45-0.418-0.495c-0.406-0.079-0.652,0.266-0.627,0.375
		c0.015,0.067,0.052,0.107,0.139,0.104c0.031-0.001,0.021,0.075-0.083,0.067C62.407,3,62.321,2.916,62.321,2.778
		c0.002-0.226,0.43-0.423,0.953-0.592c0.091-0.03,0.182-0.055,0.267-0.074c0.392-0.093,0.694-0.094,0.762-0.094
		s0.371,0.001,0.762,0.094c0.086,0.02,0.176,0.044,0.269,0.074c0.522,0.169,0.949,0.366,0.952,0.592
		c0,0.137-0.088,0.221-0.222,0.231c-0.104,0.008-0.115-0.068-0.083-0.067c0.087,0.004,0.125-0.037,0.14-0.104
		c0.024-0.108-0.222-0.454-0.629-0.375c-0.239,0.046-0.419,0.22-0.419,0.495c0,0.263,0.162,0.479,0.39,0.496
		c0.021,0.001,0.041,0.002,0.062,0.002c0.078,0,0.158-0.007,0.229-0.007c0.105-0.003,0.227-0.005,0.357-0.005
		c0.544,0,1.292,0.029,2.082,0.147c1.199,0.181,2.78,0.613,3.513,1.648c0.72,1.02,0.692,2.054,0.442,2.887
		c-0.101,0.352-0.383,0.973-0.494,0.938c-0.014-0.004,0.004-0.042,0.023-0.078c0.035-0.064,0.322-0.47,0.168-0.796
		c-0.1-0.215-0.373-0.246-0.492-0.22c-0.222,0.079-0.34,0.351-0.398,0.599c-0.009,0.037-0.016,0.07-0.022,0.106
		c-0.048,0.264-0.191,1.232,0.199,2.543c-0.006,0.015,0.117,0.361,0.156,0.463l0.004-0.002c0.018,0.058,0.035,0.119,0.052,0.183
		c0.014,0.054,0.026,0.11,0.038,0.168c0.004,0.022,0.007,0.043,0.011,0.065c0.006,0.037,0.011,0.072,0.016,0.109
		c0.004,0.029,0.007,0.057,0.009,0.085c0.003,0.035,0.004,0.068,0.005,0.104c0.001,0.028,0.003,0.056,0.003,0.085v0.002l0.001,0.005
		c-0.027,1.133-0.207,1.142-0.363,1.159c-0.097,0.011-0.121-0.015-0.136-0.063c-0.016-0.051-0.031-0.091-0.006-0.094
		c0.027-0.004,0.035,0.066,0.069,0.056c0.033-0.012,0.015-0.082,0.068-0.076c0.052,0.008,0.135,0.023,0.152-0.023
		c0.007-0.014-0.169-0.049-0.203-0.054S71,13.344,71.014,13.264c0.015-0.081,0.015-0.238-0.046-0.284
		c-0.086-0.063-0.101,0.034-0.124,0.038c-0.022,0.006-0.028-0.249,0.095-0.326c0.119-0.076,0.188,0.048,0.222,0.16
		c0.071,0.237-0.057,0.433-0.074,0.455c-0.032,0.042,0.154,0.081,0.169,0.046c0.121-0.299,0.033-0.669-0.12-0.758
		c-0.013-0.008-0.026-0.015-0.04-0.019c-0.01-0.004-0.021-0.007-0.031-0.01c-0.092-0.019-0.174,0.017-0.206,0.034
		c-0.08,0.048-0.114,0.134-0.127,0.236l-0.001,0.005c-0.003,0.025-0.004,0.05-0.005,0.074v0.017c-0.001,0.024,0,0.048,0.001,0.073
		c0.001,0.006,0.001,0.013,0.001,0.02c0.003,0.054,0.007,0.106,0.013,0.163c0.02,0.21,0.076,0.37,0.089,0.4
		c0.124,0.294,0.265,0.255,0.463,0.265l0.357,0.083c0.009,0.002,0.019,0.002,0.026,0.002c0.184,0,0.353-0.1,0.443-0.262
		c0.157-0.279,0.211-0.588,0.251-0.915c0.032-0.266,0.025-0.547-0.021-0.836c-0.034-0.215-0.076-0.411-0.12-0.579l0.003-0.002
		c0.096,0.423,0.335,0.95,0.632,0.95c0.018,0,0.033-0.002,0.05-0.006c0.307-0.061,0.332-0.27,0.502-0.431
		c0.133-0.127,0.396-0.187,0.471-0.378c0.137-0.344-0.1-0.692-0.423-0.692c-0.116,0-0.243,0.045-0.367,0.15
		c-0.002,0-0.003,0-0.004,0c-0.045,0.032-0.098,0.071-0.168,0.113c-0.079,0.047-0.16,0.096-0.218,0.141
		c-0.034,0.025-0.082,0.113-0.064,0.206c0.023,0.131,0.09,0.202,0.128,0.227c0.053,0.036,0.104,0.017,0.128-0.014
		c-0.012-0.019-0.023-0.042-0.035-0.075c-0.049-0.147,0.223-0.338,0.311,0.076c0.087,0.415-0.197,0.589-0.322,0.561
		c0.132-0.176,0.046-0.313,0.079-0.324c0.035-0.012,0.159-0.141,0.19-0.161c0.03-0.021,0.042-0.043,0.026-0.054
		c-0.007-0.007-0.043-0.005-0.082,0.001c-0.025,0.012-0.089,0.044-0.166,0.079c-0.141,0.064-0.321-0.098-0.351-0.288
		c-0.033-0.209,0.019-0.27,0.09-0.325c0.063-0.049,0.146-0.098,0.229-0.149c0.069-0.04,0.15-0.09,0.178-0.115
		c-0.067-0.161-0.101-0.343-0.109-0.534c-0.253-0.117-0.46-0.347-0.818-0.546C71.726,9.536,71.356,9.554,71.267,9.35" />
    <line fill="#1351b4" x1="66.954" y1="21.046" x2="66.738" y2="21.046" />
    <line fill="#1351b4" x1="61.888" y1="21.046" x2="61.651" y2="21.046" />
    <path fill="#1351b4" d="M64.653,15.386v-0.379c0-0.033,0.025-0.057,0.057-0.057h0.373c0.015,0,0.028,0.004,0.038,0.015l0.427,0.419
		v-1.58l-0.427,0.419c-0.01,0.01-0.023,0.016-0.038,0.016H64.71c-0.031,0-0.057-0.025-0.057-0.057v-0.379
		c0-0.015,0.005-0.029,0.016-0.04l0.412-0.434h-1.556l0.412,0.434c0.01,0.011,0.015,0.025,0.015,0.04v0.379
		c0,0.031-0.024,0.057-0.056,0.057h-0.374c-0.015,0-0.028-0.006-0.038-0.016l-0.428-0.419v1.58l0.428-0.419
		c0.01-0.011,0.023-0.015,0.038-0.015h0.374c0.03,0,0.056,0.023,0.056,0.057v0.379c0,0.016-0.005,0.028-0.015,0.039l-0.412,0.434
		h1.556l-0.412-0.434C64.658,15.414,64.653,15.401,64.653,15.386 M64.478,15.354c0,0.031-0.024,0.057-0.056,0.057h-0.218
		c-0.03,0-0.055-0.025-0.055-0.057v-0.574h-0.595c-0.03,0-0.056-0.025-0.056-0.057v-0.219c0-0.033,0.025-0.058,0.056-0.058h0.595
		v-0.612c0-0.031,0.025-0.057,0.055-0.057h0.218c0.03,0,0.056,0.025,0.056,0.057v0.612h0.573c0.03,0,0.056,0.024,0.056,0.058v0.219
		c0,0.031-0.025,0.057-0.056,0.057h-0.573V15.354z" />
    <path fill="#1351b4" d="M65.082,13.329l-0.413,0.434c-0.011,0.011-0.016,0.024-0.016,0.04v0.379c0,0.032,0.025,0.057,0.057,0.057
		h0.373c0.015,0,0.029-0.006,0.039-0.016l0.426-0.419v1.58l-0.426-0.418c-0.01-0.012-0.024-0.016-0.039-0.016H64.71
		c-0.031,0-0.057,0.023-0.057,0.057v0.379c0,0.015,0.005,0.027,0.016,0.039l0.413,0.433h-1.558l0.412-0.433
		c0.01-0.012,0.016-0.024,0.016-0.039v-0.379c0-0.033-0.025-0.057-0.056-0.057h-0.374c-0.015,0-0.028,0.004-0.038,0.016
		l-0.428,0.418v-1.58l0.428,0.419c0.01,0.01,0.023,0.016,0.038,0.016h0.374c0.03,0,0.056-0.024,0.056-0.057v-0.379
		c0-0.016-0.006-0.029-0.016-0.04l-0.412-0.434H65.082 M64.149,14.446h-0.595c-0.031,0-0.057,0.024-0.057,0.058v0.219
		c0,0.031,0.026,0.057,0.057,0.057h0.595v0.575c0,0.03,0.024,0.056,0.056,0.056h0.216c0.031,0,0.057-0.025,0.057-0.056v-0.575h0.573
		c0.031,0,0.056-0.025,0.056-0.057v-0.219c0-0.033-0.024-0.058-0.056-0.058h-0.573v-0.612c0-0.03-0.025-0.057-0.057-0.057h-0.216
		c-0.031,0-0.056,0.026-0.056,0.057V14.446 M65.213,13.272h-1.82l0.504,0.53v0.379h-0.374l-0.521-0.512v1.849l0.521-0.512h0.374
		v0.379l-0.504,0.529h1.82l-0.503-0.529v-0.379h0.373l0.521,0.512V13.67l-0.521,0.512H64.71v-0.379L65.213,13.272z M63.555,14.723
		v-0.219h0.65v-0.67h0.217v0.67h0.629v0.219h-0.629v0.632h-0.217v-0.632H63.555z" />
    <path fill="#1351b4" d="M70.51,12.02l-0.216-0.226h-0.001c0,0-0.001,0-0.002,0c-0.009-0.009-0.021-0.013-0.033-0.015
		c-0.002,0-0.003-0.001-0.005-0.001h-11.9c-0.015,0-0.029,0.006-0.039,0.016c-0.012,0.011-0.018,0.025-0.018,0.041v8.488
		c0,1.704,0.696,3.248,1.812,4.355c1.098,1.207,2.67,1.965,4.411,1.965c3.312,0,6.008-2.734,6.008-6.096V12.06
		C70.525,12.044,70.52,12.031,70.51,12.02 M58.641,12.119h11.424v0.111v4.674H58.641V12.119z M61.49,25.573
		c-0.086-0.049-0.173-0.097-0.257-0.149c0.036,0.006,0.069,0.014,0.102,0.021c0.083,0.02,0.168,0.04,0.335,0.04
		c0.168,0,0.254-0.021,0.336-0.04c0.082-0.021,0.159-0.039,0.317-0.039s0.235,0.02,0.317,0.039c0.006,0.001,0.014,0.004,0.02,0.005
		c0.003,0.042,0.007,0.084,0.019,0.124c-0.042-0.006-0.087-0.01-0.146-0.01c-0.153,0-0.23,0.021-0.307,0.043
		c-0.072,0.019-0.142,0.038-0.284,0.038c-0.142,0-0.211-0.021-0.284-0.038C61.609,25.593,61.559,25.581,61.49,25.573 M64.72,22.836
		c-0.038,0.026-0.073,0.057-0.108,0.085c-0.032,0.026-0.062,0.054-0.092,0.082c-0.057,0.056-0.111,0.114-0.158,0.177
		c-0.033,0.045-0.064,0.091-0.093,0.138c-0.248,0.42-0.171,1.002,0.051,1.38c-0.249-0.082-0.514-0.124-0.79-0.124
		c-0.265,0-0.466,0.038-0.555,0.059c0.001-0.206,0.061-1.041,0.879-1.674c0.09-0.025,0.177-0.046,0.261-0.062
		c0.003-0.001,0.006-0.001,0.01-0.001C64.343,22.85,64.544,22.829,64.72,22.836 M64.361,22.46c-0.129-0.205-0.06-0.373,0-0.472
		V22.46z M65.789,22.589c0.021,0.024,0.046,0.055,0.053,0.07c0.034,0.072-0.012,0.163-0.075,0.211
		c-0.061,0.048-0.147,0.055-0.222,0.016c-0.006-0.007-0.017-0.007-0.025-0.005c-0.014,0.005-0.021,0.02-0.019,0.033
		c0.021,0.083-0.008,0.168-0.071,0.218c-0.062,0.048-0.149,0.054-0.222,0.015c-0.008-0.006-0.018-0.008-0.026-0.004
		c-0.015,0.005-0.021,0.02-0.019,0.032c0.02,0.084-0.009,0.169-0.072,0.218c-0.031,0.023-0.069,0.037-0.108,0.041
		c-0.002,0-0.004-0.001-0.006-0.001c-0.035,0.001-0.073-0.006-0.108-0.024c-0.008-0.007-0.018-0.008-0.027-0.003
		c-0.012,0.004-0.019,0.019-0.017,0.031c0.021,0.084-0.008,0.169-0.071,0.217c-0.009,0.007-0.019,0.012-0.028,0.016
		c-0.015,0.008-0.029,0.016-0.045,0.019c-0.001,0-0.002,0-0.004,0.001c-0.015,0.002-0.029,0.006-0.043,0.006
		c-0.007,0-0.013-0.002-0.019-0.002c-0.011-0.002-0.021-0.003-0.032-0.004c-0.019-0.004-0.036-0.011-0.052-0.021
		c-0.009-0.005-0.021-0.007-0.03-0.001c-0.011,0.006-0.016,0.02-0.013,0.031c0.019,0.083-0.01,0.169-0.073,0.218
		c-0.036,0.027-0.081,0.039-0.127,0.037c-0.005,0-0.011,0-0.016,0c-0.026-0.003-0.052-0.01-0.075-0.021
		c0-0.039,0.003-0.077,0.006-0.116l0.159-0.123l0.593-0.458L65.789,22.589z M64.954,23.135v-0.273
		c0.11,0.026,0.184,0.073,0.219,0.104L64.954,23.135z M65.608,24.236c-0.012,0.008-0.024,0.013-0.037,0.018H65.57
		c-0.012,0.004-0.026,0.007-0.04,0.007c-0.024,0-0.05-0.006-0.072-0.019c-0.008-0.006-0.02-0.008-0.027-0.005
		c-0.013,0.006-0.02,0.02-0.018,0.033c0.013,0.057-0.009,0.114-0.053,0.146c-0.043,0.031-0.102,0.034-0.148,0.007
		c-0.008-0.006-0.017-0.009-0.026-0.006c-0.014,0.005-0.022,0.019-0.02,0.034c0.011,0.05-0.021,0.118-0.069,0.153
		c-0.009,0.007-0.021,0.011-0.035,0.014c-0.006,0.002-0.011,0.002-0.018,0.002c-0.007,0.002-0.014,0.002-0.021,0.002
		c-0.011,0-0.021-0.002-0.028-0.003c-0.004-0.001-0.006-0.001-0.009-0.001c-0.012-0.003-0.021-0.006-0.031-0.01
		c-0.009-0.004-0.019-0.007-0.023-0.012v-0.043l0.939-0.676c0.014,0.021,0.025,0.045,0.028,0.052c0.017,0.049,0,0.094-0.043,0.126
		c-0.043,0.031-0.103,0.034-0.15,0.007c-0.007-0.007-0.016-0.007-0.025-0.007c-0.014,0.005-0.022,0.02-0.02,0.034
		C65.672,24.146,65.651,24.203,65.608,24.236 M65.773,24.823c-0.082,0.033-0.177,0.064-0.277,0.088l-0.001-0.577L65.773,24.823z
		 M65.282,24.496c0.035,0,0.07-0.009,0.102-0.028l0.001,0.465c-0.065,0.01-0.132,0.018-0.201,0.018c-0.059,0-0.114-0.007-0.17-0.016
		L65.282,24.496z M64.954,24.882v-0.213c0.022,0.008,0.046,0.011,0.069,0.011c0.021,0,0.04-0.002,0.059-0.007L64.954,24.882z
		 M64.954,24.439v-0.951c0.021,0.002,0.041,0.001,0.06-0.002l0.367,0.646L64.954,24.439z M64.516,24.8
		c0.001-0.136,0.001-0.267,0.001-0.391l0.269-0.709c0.001,0,0.003-0.001,0.003-0.001c0.021-0.017,0.039-0.039,0.055-0.063v1.378
		L64.516,24.8z M64.843,25.107v0.047c-0.055,0.049-0.151,0.074-0.297,0.074c-0.01,0-0.021-0.001-0.03-0.003c0-0.114,0-0.225,0-0.331
		L64.843,25.107z M64.517,24.22c0-0.122,0.001-0.234,0.001-0.344c0.021-0.043,0.033-0.09,0.031-0.138
		c0.049,0.015,0.101,0.015,0.149,0.003L64.517,24.22z M64.361,24.818v0.398c-0.048-0.005-0.096-0.009-0.146-0.015L64.361,24.818z
		 M64.147,25.193c-0.028-0.005-0.058-0.007-0.086-0.012l-0.022-0.003c-0.05-0.007-0.095-0.013-0.136-0.018
		c-0.29-0.037-0.334-0.043-0.472-0.274c-0.052-0.086-0.192-0.145-0.352-0.194c0.104-0.019,0.26-0.039,0.45-0.039
		c0.271,0,0.531,0.043,0.774,0.125L64.147,25.193z M64.361,24.001v0.606c-0.091-0.176-0.151-0.394-0.161-0.615
		c0.031,0.013,0.062,0.021,0.095,0.021C64.317,24.013,64.34,24.009,64.361,24.001 M64.212,23.708
		c0.021-0.124,0.061-0.242,0.124-0.349c0.007-0.014,0.017-0.025,0.025-0.038v0.271L64.212,23.708z M64.843,23.221l-0.324,0.25
		v-0.353c0.093-0.101,0.201-0.191,0.324-0.268V23.221z M63.363,24.928c0.158,0.266,0.237,0.274,0.53,0.312
		c0.041,0.006,0.085,0.01,0.135,0.017l0.022,0.003c0.168,0.023,0.343,0.048,0.495,0.048c0.044,0,0.083-0.003,0.119-0.006
		c0.026-0.003,0.049-0.008,0.07-0.014c0.009-0.002,0.018-0.003,0.025-0.005c0.027-0.008,0.051-0.017,0.071-0.027
		c0.001-0.001,0.003-0.001,0.005-0.003c0.021-0.01,0.042-0.023,0.059-0.039c0.009-0.009,0.021-0.014,0.027-0.022
		c0.014-0.018,0.022-0.038,0.032-0.059c0.006-0.015,0.011-0.029,0.015-0.045c0.005-0.024,0.012-0.049,0.011-0.077
		c0.065,0.012,0.134,0.018,0.203,0.018c0.379,0,0.719-0.166,0.872-0.254c-0.029,0.087-0.081,0.204-0.135,0.222
		c-0.015,0.005-0.025,0.018-0.026,0.034c-0.019,0.184-0.117,0.194-0.12,0.194c-0.01,0.001-0.021,0.007-0.027,0.015
		c-0.007,0.009-0.011,0.018-0.01,0.029c0.004,0.048,0.004,0.09,0.002,0.128v0.001c-0.006,0.101-0.027,0.174-0.054,0.228
		c-0.038,0.009-0.082,0.016-0.141,0.019c-0.02,0-0.04,0.002-0.063,0.002c-0.142,0-0.211-0.021-0.284-0.038
		c-0.075-0.021-0.153-0.043-0.306-0.043s-0.229,0.021-0.305,0.043c-0.073,0.019-0.143,0.038-0.284,0.038
		c-0.143,0-0.212-0.021-0.285-0.038c-0.075-0.021-0.152-0.043-0.306-0.043c-0.152,0-0.23,0.021-0.305,0.043
		c-0.073,0.019-0.143,0.038-0.285,0.038c-0.142,0-0.211-0.021-0.284-0.038c-0.022-0.008-0.047-0.013-0.071-0.019l0,0
		c-0.007-0.02-0.013-0.039-0.017-0.06c-0.01-0.044-0.012-0.094-0.012-0.145v-0.001c0-0.029,0.001-0.058,0.001-0.085
		c0.004-0.145,0.009-0.293-0.086-0.376c-0.152-0.134-0.127-0.264-0.102-0.326c0.077,0.048,0.203,0.083,0.347,0.124
		C63.091,24.777,63.312,24.841,63.363,24.928 M62.874,26.124c0.085,0.004,0.136,0.02,0.188,0.036
		c0.027,0.009,0.056,0.017,0.09,0.025C63.059,26.165,62.965,26.146,62.874,26.124 M64.303,26.303c-0.387,0-0.763-0.04-1.128-0.113
		c0.038,0.008,0.084,0.012,0.145,0.012c0.128,0,0.193-0.021,0.257-0.041c0.061-0.021,0.117-0.039,0.234-0.039
		s0.173,0.02,0.233,0.039c0.063,0.021,0.129,0.041,0.257,0.041c0.13,0,0.194-0.021,0.259-0.041c0.06-0.021,0.117-0.039,0.233-0.039
		c0.117,0,0.175,0.02,0.234,0.039c0.062,0.021,0.128,0.041,0.257,0.041c0.13,0,0.195-0.021,0.259-0.041
		c0.053-0.019,0.106-0.034,0.197-0.036C65.28,26.241,64.799,26.303,64.303,26.303 M65.958,26.062
		c-0.046-0.012-0.101-0.02-0.183-0.02c-0.128,0-0.193,0.021-0.257,0.041c-0.061,0.021-0.117,0.038-0.234,0.038
		s-0.174-0.018-0.233-0.038c-0.063-0.02-0.129-0.041-0.258-0.041s-0.194,0.021-0.258,0.041c-0.06,0.021-0.117,0.038-0.234,0.038
		c-0.116,0-0.173-0.018-0.233-0.038c-0.063-0.02-0.128-0.041-0.257-0.041s-0.194,0.021-0.258,0.041
		c-0.061,0.021-0.117,0.038-0.233,0.038c-0.117,0-0.174-0.018-0.234-0.038c-0.062-0.02-0.129-0.041-0.258-0.041
		c-0.077,0-0.131,0.008-0.177,0.019c-0.106-0.031-0.212-0.066-0.317-0.104c0.065-0.007,0.112-0.021,0.157-0.035
		c0.063-0.02,0.124-0.038,0.248-0.038c0.125,0,0.186,0.02,0.249,0.038c0.067,0.021,0.137,0.042,0.272,0.042s0.205-0.021,0.271-0.042
		c0.064-0.02,0.124-0.038,0.25-0.038c0.124,0,0.185,0.02,0.248,0.038c0.067,0.021,0.136,0.042,0.271,0.042s0.205-0.021,0.272-0.042
		c0.063-0.02,0.125-0.038,0.249-0.038c0.125,0,0.186,0.02,0.249,0.038c0.066,0.021,0.136,0.042,0.272,0.042
		c0.135,0,0.204-0.021,0.271-0.042c0.064-0.02,0.125-0.038,0.25-0.038s0.186,0.02,0.25,0.038c0.046,0.015,0.095,0.029,0.165,0.035
		C66.174,25.994,66.067,26.03,65.958,26.062 M66.482,25.879c-0.027,0.003-0.058,0.004-0.096,0.004c-0.125,0-0.187-0.018-0.25-0.036
		c-0.066-0.021-0.136-0.043-0.272-0.043s-0.205,0.021-0.271,0.043c-0.064,0.019-0.125,0.036-0.249,0.036
		c-0.125,0-0.186-0.018-0.249-0.036c-0.067-0.021-0.137-0.043-0.272-0.043s-0.204,0.021-0.271,0.043
		c-0.064,0.019-0.125,0.036-0.25,0.036c-0.124,0-0.185-0.018-0.248-0.036c-0.066-0.021-0.137-0.043-0.271-0.043
		c-0.136,0-0.206,0.021-0.272,0.043c-0.063,0.019-0.124,0.036-0.249,0.036s-0.185-0.018-0.249-0.036
		c-0.066-0.021-0.136-0.043-0.271-0.043c-0.137,0-0.205,0.021-0.271,0.043c-0.064,0.019-0.125,0.036-0.25,0.036
		c-0.038,0-0.068-0.001-0.097-0.004c-0.129-0.053-0.254-0.109-0.378-0.172c0.051,0.01,0.111,0.018,0.197,0.018
		c0.153,0,0.231-0.021,0.306-0.042c0.073-0.02,0.143-0.037,0.285-0.037c0.142,0,0.212,0.018,0.284,0.037
		c0.075,0.021,0.153,0.042,0.306,0.042s0.23-0.021,0.305-0.042c0.073-0.02,0.143-0.037,0.284-0.037c0.144,0,0.213,0.018,0.286,0.037
		c0.074,0.021,0.151,0.042,0.305,0.042c0.152,0,0.23-0.021,0.305-0.042c0.074-0.02,0.144-0.037,0.285-0.037
		c0.143,0,0.212,0.018,0.285,0.037c0.075,0.021,0.152,0.042,0.305,0.042c0.153,0,0.23-0.021,0.306-0.042
		c0.073-0.02,0.143-0.037,0.285-0.037c0.142,0,0.212,0.018,0.285,0.037c0.074,0.021,0.152,0.042,0.306,0.042
		c0.09,0,0.153-0.008,0.206-0.019C66.743,25.77,66.614,25.825,66.482,25.879 M67.126,25.571c-0.074,0.008-0.128,0.021-0.178,0.035
		c-0.073,0.019-0.143,0.039-0.285,0.039s-0.212-0.021-0.285-0.039c-0.076-0.021-0.152-0.043-0.306-0.043
		c-0.146,0-0.223,0.021-0.293,0.039c0.014-0.039,0.024-0.083,0.031-0.134c0.042-0.007,0.078-0.015,0.113-0.023
		c0.082-0.021,0.159-0.039,0.317-0.039c0.159,0,0.236,0.02,0.317,0.039c0.083,0.02,0.168,0.04,0.337,0.04
		c0.168,0,0.254-0.021,0.336-0.04c0.049-0.012,0.097-0.022,0.159-0.031C67.304,25.469,67.216,25.521,67.126,25.571 M67.456,25.302
		c-0.147,0.001-0.229,0.021-0.305,0.038c-0.078,0.02-0.154,0.037-0.309,0.037s-0.229-0.018-0.31-0.037
		c-0.079-0.021-0.162-0.039-0.325-0.039c-0.162,0-0.246,0.02-0.326,0.039c-0.026,0.007-0.054,0.013-0.084,0.019
		c0.002-0.028,0.002-0.057-0.001-0.087c0.048-0.02,0.125-0.072,0.147-0.229c0.12-0.069,0.185-0.346,0.185-0.361
		c0-0.013-0.008-0.027-0.021-0.033c-0.013-0.007-0.027-0.006-0.039,0.002c-0.002,0.003-0.101,0.067-0.254,0.136l-0.268-0.468
		c0.028-0.007,0.055-0.016,0.077-0.032c0.047-0.034,0.074-0.09,0.078-0.148c0.055,0.017,0.115,0.008,0.162-0.026
		c0.062-0.046,0.086-0.115,0.062-0.186c-0.005-0.016-0.022-0.045-0.034-0.064l0.04-0.029c0.018-0.013,0.021-0.037,0.009-0.054
		s-0.036-0.021-0.053-0.01l-0.407,0.293v-0.128c0-0.03-0.024-0.054-0.054-0.054c-0.03,0-0.054,0.024-0.054,0.056v0.076l-0.296-0.519
		c0.016-0.008,0.032-0.017,0.046-0.027c0.066-0.05,0.101-0.132,0.097-0.216c0.079,0.025,0.167,0.013,0.231-0.037
		c0.065-0.05,0.101-0.133,0.097-0.217c0.08,0.026,0.166,0.013,0.231-0.037c0.078-0.061,0.134-0.175,0.089-0.274
		c-0.011-0.021-0.038-0.055-0.058-0.077l0.047-0.036c0.017-0.013,0.021-0.036,0.008-0.054s-0.037-0.021-0.054-0.007l-0.58,0.448
		c-0.039-0.034-0.129-0.102-0.274-0.131v-0.324c0-0.029-0.025-0.054-0.055-0.054c-0.03,0-0.054,0.024-0.054,0.054v0.309H64.85
		h-0.001c-0.095-0.01-0.201-0.01-0.312-0.002c0.001-0.796,0-0.917-0.002-0.937h0.002c-0.001-0.017-0.009-0.029-0.025-0.038
		c-0.027-0.015-0.078-0.012-0.106,0.007c-0.015,0.01-0.021,0.021-0.021,0.036v0.045c-0.003,0.001-0.005,0.001-0.008,0.003
		c-0.172,0.165-0.453,0.217-0.757,0.142c-0.019-0.005-0.037,0.006-0.045,0.024c-0.007,0.018,0.001,0.037,0.018,0.048
		c0.022,0.013,0.115,0.084,0.146,0.204c0.025,0.099,0.004,0.206-0.065,0.318c-0.009,0.015-0.007,0.034,0.005,0.048
		c0.008,0.007,0.017,0.011,0.027,0.011c0.007,0,0.014-0.002,0.02-0.006c0.002-0.001,0.224-0.133,0.438-0.133
		c0.088,0,0.162,0.022,0.223,0.064v0.174c-0.162,0.02-0.336,0.055-0.521,0.105c-0.005,0.001-0.009,0.004-0.013,0.007
		c-0.832,0.64-0.888,1.495-0.889,1.699c-0.137-0.039-0.274-0.079-0.324-0.124c-0.002-0.003-0.007-0.001-0.009-0.004
		c-0.108-0.14-0.299-0.281-0.307-0.286c-0.017-0.015-0.04-0.009-0.053,0.008c-0.013,0.018-0.01,0.043,0.007,0.054
		c0.002,0.002,0.185,0.138,0.287,0.267c-0.034,0.071-0.086,0.248,0.111,0.422c0.063,0.057,0.061,0.177,0.057,0.304
		c-0.001,0.021-0.001,0.045-0.001,0.069c-0.081-0.021-0.163-0.04-0.326-0.04c-0.164,0-0.245,0.02-0.327,0.04
		c-0.078,0.02-0.152,0.036-0.307,0.036c-0.153,0-0.229-0.018-0.308-0.036c-0.067-0.017-0.139-0.033-0.257-0.038
		c-0.986-0.655-1.767-1.61-2.204-2.74c-0.001-0.003-0.002-0.005-0.003-0.007c-0.034-0.089-0.066-0.179-0.097-0.271
		c-0.003-0.007-0.005-0.013-0.006-0.019c-0.028-0.087-0.056-0.174-0.08-0.263c-0.003-0.011-0.007-0.022-0.009-0.035
		c-0.023-0.082-0.043-0.165-0.062-0.25c-0.004-0.017-0.008-0.034-0.013-0.051c-0.003-0.02-0.007-0.038-0.011-0.058
		c0.002,0.01,0.004,0.02,0.005,0.029h11.195C69.604,23.165,68.699,24.473,67.456,25.302 M63.771,22.263
		c-0.017-0.064-0.047-0.117-0.079-0.159c0.211,0.029,0.408-0.001,0.564-0.083c-0.051,0.109-0.083,0.265,0.014,0.445
		c-0.042-0.012-0.088-0.017-0.136-0.017c-0.146,0-0.29,0.05-0.384,0.092C63.787,22.446,63.794,22.354,63.771,22.263 M69.931,21.479
		H58.708c-0.009-0.046-0.019-0.091-0.026-0.136c-0.002-0.017-0.005-0.031-0.008-0.048h2.336c0.008,0,0.017-0.002,0.023-0.007
		l0.228-0.163h6.084l0.229,0.163c0.006,0.005,0.015,0.007,0.021,0.007h2.372C69.957,21.358,69.943,21.419,69.931,21.479
		 M61.888,21.046h-0.236 M62.62,21.046h-0.665 M63.105,21.046h-0.418 M65.939,21.046h-0.417 M66.67,21.046h-0.664 M66.954,21.046
		h-0.216 M61.584,21.046h-0.336c-0.008,0-0.017,0.002-0.022,0.008l-0.228,0.163h-2.521c0.003,0.019,0.004,0.038,0.008,0.059
		c-0.013-0.078-0.022-0.157-0.032-0.235c-0.004-0.026-0.007-0.054-0.011-0.081c-0.008-0.078-0.014-0.157-0.019-0.236
		c-0.002-0.027-0.005-0.055-0.006-0.081c-0.006-0.105-0.009-0.213-0.009-0.319v-3.477h11.6v3.461h0.191
		c-0.002,0.004-0.191,0.01-0.191,0.016c0,0.305-0.024,0.603-0.068,0.896h-2.332l-0.229-0.163c-0.007-0.006-0.014-0.008-0.022-0.008
		h-0.335" />
    <path fill="#1351b4"
          d="M71.023,5.924c-0.013-0.027-0.036-0.048-0.064-0.058c-0.104-0.037-0.212-0.074-0.318-0.107
		c-0.004-0.002-0.006-0.003-0.01-0.003c-0.01-0.004-0.021-0.005-0.032-0.005c-0.001,0-0.001-0.001-0.002-0.001h-0.001H70.59
		c-0.002,0-0.005,0.001-0.009,0.002c-0.008,0-0.017,0.004-0.026,0.007c-0.001,0-0.003,0-0.005,0.001l-0.122,0.054
		c-0.021-0.006-0.043-0.014-0.064-0.021l0.002-0.004c0.019-0.06-0.016-0.124-0.074-0.142c-0.114-0.036-0.228-0.069-0.342-0.102
		c-0.01-0.003-0.02-0.004-0.029-0.004c0,0-0.001-0.001-0.002-0.001h-0.001h-0.002h-0.001c-0.018,0.001-0.033,0.005-0.047,0.012
		l-0.119,0.058c-0.021-0.006-0.044-0.012-0.065-0.018l0.002-0.005c0.016-0.06-0.021-0.123-0.08-0.139
		c-0.118-0.033-0.236-0.063-0.355-0.093c-0.01-0.002-0.018-0.003-0.028-0.003c-0.014,0-0.026,0.003-0.039,0.009
		c-0.003,0-0.007,0.003-0.01,0.005c-0.01,0.004-0.018,0.01-0.024,0.018c-0.002,0.002-0.006,0.002-0.008,0.003L68.896,5.65
		c-0.014,0.015-0.023,0.032-0.028,0.052l-0.09,0.379l-0.06,0.257v0.003c-0.25-0.059-0.501-0.114-0.756-0.163l0.167-0.174
		c0.003-0.002,0.003-0.005,0.004-0.007c0.011-0.012,0.019-0.026,0.022-0.042c0.001-0.002,0.003-0.005,0.003-0.007l0.001-0.002
		l0.132-0.689c0.006-0.03-0.001-0.061-0.018-0.086c-0.017-0.024-0.043-0.042-0.071-0.048C68.091,5.1,67.977,5.079,67.862,5.06
		c-0.005-0.002-0.012-0.002-0.017-0.002h-0.001h-0.001h-0.002c-0.012,0-0.023,0.002-0.034,0.006c-0.004,0-0.007,0.003-0.01,0.005
		c-0.006,0.003-0.011,0.004-0.015,0.007l-0.107,0.067c-0.023-0.004-0.049-0.007-0.071-0.011V5.13
		c0.009-0.062-0.033-0.121-0.093-0.13c-0.118-0.02-0.235-0.037-0.354-0.054c-0.005,0-0.01,0-0.016,0c-0.002,0-0.003,0-0.005,0
		c-0.01,0-0.021,0.002-0.03,0.006c-0.005,0-0.008,0.003-0.012,0.006c-0.006,0.002-0.011,0.003-0.015,0.007l-0.106,0.072
		c-0.023-0.003-0.048-0.007-0.072-0.009l0.001-0.001c0.003-0.03-0.005-0.061-0.023-0.084C66.861,4.92,66.834,4.904,66.805,4.9
		c-0.122-0.014-0.244-0.029-0.366-0.042h-0.011h-0.001c-0.017,0-0.031,0.005-0.046,0.011c-0.005,0.002-0.007,0.005-0.012,0.007
		c-0.01,0.007-0.02,0.014-0.026,0.023c-0.002,0.003-0.006,0.004-0.008,0.006L66.13,5.2c-0.011,0.016-0.019,0.035-0.02,0.055
		l-0.037,0.388l-0.025,0.262l0.001,0.004c-0.247-0.022-0.495-0.041-0.745-0.053c0.035-0.047,0.077-0.114,0.127-0.215v0
		c0.007-0.014,0.01-0.029,0.012-0.045l0.035-0.702c0.002-0.03-0.008-0.06-0.028-0.082S65.4,4.775,65.371,4.774l-0.389-0.016h-0.003
		h-0.001h-0.004H64.97c-0.028,0-0.055,0.01-0.077,0.03c-0.008,0.008-0.015,0.019-0.021,0.03l-0.22,0.212l0.002-0.168
		c0-0.03-0.011-0.061-0.032-0.081c-0.021-0.021-0.049-0.034-0.079-0.034l-0.24-0.001h-0.001l-0.239,0.001
		c-0.03,0-0.059,0.012-0.08,0.034c-0.021,0.021-0.032,0.051-0.032,0.081l0.002,0.168l-0.22-0.212
		c-0.006-0.011-0.013-0.022-0.021-0.03c-0.021-0.021-0.048-0.03-0.076-0.03H63.63h-0.003h-0.002h-0.003l-0.389,0.016
		c-0.029,0.001-0.057,0.015-0.077,0.037s-0.03,0.052-0.028,0.082l0.035,0.702c0.001,0.016,0.006,0.031,0.012,0.045
		c0.051,0.104,0.092,0.17,0.128,0.217c-0.25,0.014-0.499,0.032-0.746,0.055c0,0,0-0.005,0-0.007l-0.025-0.262l-0.036-0.388
		c-0.001-0.02-0.009-0.039-0.02-0.055l-0.207-0.295c-0.001-0.003-0.005-0.003-0.007-0.006c-0.008-0.009-0.016-0.017-0.025-0.023
		c-0.004-0.002-0.008-0.005-0.013-0.007c-0.014-0.006-0.029-0.011-0.046-0.011h-0.011c-0.123,0.013-0.245,0.027-0.365,0.042
		c-0.03,0.004-0.057,0.02-0.075,0.042c-0.019,0.024-0.026,0.054-0.023,0.084l0.008,0.065l-0.187-0.127
		c-0.004-0.004-0.009-0.005-0.014-0.007c-0.005-0.003-0.008-0.005-0.012-0.006c-0.01-0.004-0.021-0.006-0.031-0.006
		c-0.002,0-0.004,0-0.004,0c-0.006,0-0.011,0-0.017,0C61.33,4.963,61.212,4.981,61.094,5c-0.061,0.009-0.103,0.067-0.092,0.13
		l0.009,0.064l-0.19-0.12c-0.002,0-0.004,0-0.005-0.001c-0.017-0.009-0.034-0.016-0.054-0.016l0,0c-0.007,0-0.014,0-0.02,0.002
		c-0.113,0.02-0.227,0.04-0.34,0.062c-0.028,0.006-0.055,0.023-0.071,0.048c-0.018,0.025-0.023,0.056-0.018,0.086l0.132,0.689
		c0,0,0.001,0.002,0.002,0.003c0,0,0.001,0.003,0.002,0.006c0.004,0.016,0.013,0.031,0.022,0.043
		c0.001,0.001,0.001,0.004,0.004,0.006l0.168,0.177c-0.254,0.05-0.506,0.104-0.756,0.164c0-0.003,0-0.005,0-0.005l-0.062-0.258
		l-0.089-0.38c-0.005-0.019-0.014-0.037-0.028-0.051l-0.243-0.263c-0.002-0.001-0.004-0.003-0.007-0.004
		c-0.007-0.007-0.015-0.012-0.023-0.017c-0.004-0.001-0.007-0.004-0.012-0.005c-0.013-0.006-0.026-0.009-0.04-0.009
		c-0.009,0-0.018,0.001-0.027,0.003C59.237,5.386,59.118,5.417,59,5.449c-0.059,0.016-0.095,0.079-0.078,0.138l0.016,0.062
		l-0.201-0.098c-0.016-0.007-0.032-0.011-0.048-0.011c-0.011,0-0.021,0.001-0.031,0.005c-0.115,0.033-0.229,0.066-0.343,0.102
		c-0.059,0.019-0.092,0.083-0.074,0.143l0.019,0.062l-0.205-0.091c-0.002,0-0.003,0-0.004,0c-0.014-0.006-0.026-0.009-0.041-0.009
		c-0.011,0-0.022,0.002-0.035,0.006c-0.109,0.034-0.219,0.072-0.327,0.11c-0.028,0.01-0.051,0.03-0.064,0.058
		c-0.013,0.026-0.015,0.058-0.005,0.087l0.225,0.666c0,0,0.002,0.001,0.002,0.001c0.001,0.003,0.002,0.005,0.003,0.007
		c0.007,0.015,0.016,0.027,0.028,0.038c0.002,0.002,0.002,0.004,0.004,0.005l0.244,0.196c0.003,0.002,0.008,0.003,0.012,0.006
		c0.003,0.001,0.004,0.004,0.007,0.006c0.002,0,0.004,0,0.006,0.001c0.007,0.003,0.014,0.003,0.021,0.006l0.738,2.246V9.189V9.19
		l0.357,1.089h0.01c0.214,0.412,2.72,0.684,5.068,0.684c2.35,0,4.855-0.271,5.069-0.684h0.01l0.357-1.09v0.001l0.737-2.245
		c0.004,0,0.008,0,0.012-0.001c0.003-0.002,0.005-0.004,0.007-0.004c0.01-0.004,0.018-0.008,0.026-0.014h0.001l0.244-0.196
		c0.003,0,0.004-0.003,0.006-0.004c0.011-0.011,0.021-0.023,0.026-0.038c0.002-0.002,0.003-0.005,0.004-0.007
		c0,0,0.001-0.001,0.002-0.002l0.224-0.666C71.038,5.982,71.037,5.95,71.023,5.924 M68.855,6.49L68.75,6.92
		c-0.318-0.077-0.638-0.149-0.96-0.21l0.079-0.436C68.2,6.337,68.528,6.411,68.855,6.49 M68.681,7.206l-0.356,1.455
		c-0.284-0.069-0.568-0.131-0.855-0.185l0.269-1.478C68.055,7.059,68.368,7.128,68.681,7.206 M66.428,4.97
		c0.122,0.012,0.242,0.027,0.364,0.041l-0.038,0.312c0.116,0.013,0.231,0.03,0.346,0.045l0.044-0.31
		c0.117,0.016,0.233,0.033,0.351,0.052l-0.048,0.31c0.115,0.019,0.229,0.039,0.344,0.06l0.054-0.311
		c0.113,0.021,0.227,0.041,0.338,0.062L68.05,5.924c-0.557-0.109-1.121-0.193-1.693-0.253L66.428,4.97z M66.596,6.078
		c0.39,0.047,0.78,0.105,1.163,0.176l-0.399,2.199c-0.079-0.014-0.158-0.025-0.237-0.039l0.103-0.63
		c0.015-0.101-0.007-0.201-0.062-0.277c-0.048-0.064-0.113-0.105-0.188-0.116h-0.002c-0.165-0.023-0.323,0.112-0.352,0.305
		l-0.084,0.631c-0.063-0.008-0.126-0.018-0.189-0.025L66.596,6.078z M66.205,6.036l-0.046,0.441
		c-0.325-0.033-0.651-0.058-0.979-0.073l0.019-0.443C65.536,5.976,65.871,6.003,66.205,6.036 M66.13,6.769l-0.155,1.496
		c-0.289-0.029-0.579-0.051-0.872-0.065l0.065-1.503C65.49,6.712,65.811,6.738,66.13,6.769 M63.274,5.589L63.274,5.589l-0.035-0.702
		l0.273-0.012l0.123-0.005l0.012,0.313c0,0,0.137-0.003,0.196-0.005c0.071-0.002,0.222-0.004,0.222-0.004l-0.002-0.314l0.239,0
		l0.24,0L64.54,5.173c0,0,0.151,0.002,0.223,0.004c0.06,0.002,0.197,0.005,0.197,0.005l0.011-0.313l0.122,0.005l0.274,0.012
		l-0.03,0.588L65.33,5.589c-0.34-0.018-0.683-0.027-1.027-0.027S63.615,5.57,63.274,5.589 M64.316,7.191h-0.004h-0.019H64.29
		c-0.21,0.007-0.378,0.162-0.378,0.354l0.011,0.64c-0.064,0.001-0.13,0.004-0.193,0.005c-0.038,0.002-0.076,0.002-0.115,0.003
		L63.52,5.956c0.26-0.011,0.522-0.017,0.783-0.017c0.263,0,0.525,0.006,0.784,0.017l-0.095,2.238
		c-0.104-0.004-0.206-0.004-0.309-0.006l0.011-0.644C64.694,7.354,64.525,7.198,64.316,7.191 M63.503,8.2
		c-0.291,0.014-0.583,0.035-0.873,0.063l-0.153-1.492c0.319-0.031,0.639-0.056,0.962-0.072L63.503,8.2z M63.407,5.963l0.019,0.442
		c-0.327,0.017-0.653,0.042-0.979,0.075l-0.045-0.44C62.735,6.006,63.071,5.979,63.407,5.963 M61.381,7.786l0.103,0.628
		c-0.077,0.014-0.158,0.024-0.236,0.038l-0.4-2.199c0.385-0.071,0.774-0.128,1.165-0.176l0.248,2.225
		c-0.062,0.007-0.126,0.018-0.188,0.025l-0.085-0.632c-0.028-0.191-0.186-0.326-0.353-0.303h-0.002
		c-0.074,0.011-0.141,0.051-0.188,0.116C61.388,7.583,61.365,7.684,61.381,7.786 M61.137,8.476
		c-0.286,0.054-0.572,0.114-0.855,0.183l-0.355-1.452c0.312-0.076,0.626-0.145,0.943-0.206L61.137,8.476z M60.556,5.923
		l-0.132-0.691c0.112-0.021,0.226-0.042,0.339-0.062l0.054,0.31c0.113-0.021,0.229-0.041,0.344-0.06l-0.048-0.31
		c0.116-0.019,0.233-0.036,0.351-0.052l0.043,0.311c0.115-0.016,0.23-0.032,0.347-0.045l-0.037-0.312
		c0.12-0.014,0.242-0.028,0.362-0.041l0.073,0.701C61.678,5.73,61.112,5.814,60.556,5.923 M60.737,6.277l0.079,0.436
		c-0.322,0.062-0.642,0.132-0.96,0.21l-0.104-0.431C60.079,6.414,60.407,6.341,60.737,6.277 M58.032,6.599
		c-0.005,0.001-0.01,0.003-0.014,0.005c-0.038,0.012-0.074,0.023-0.111,0.036l-0.036-0.108l-0.188-0.558
		c0.108-0.037,0.218-0.075,0.326-0.11l0.095,0.294c0.11-0.036,0.222-0.072,0.333-0.105l-0.042-0.142l-0.047-0.154
		c0.077-0.025,0.155-0.047,0.233-0.071c0.035-0.011,0.071-0.022,0.107-0.032l0.084,0.298c0.111-0.032,0.224-0.063,0.336-0.094
		L59.07,5.713l-0.041-0.156c0.082-0.022,0.164-0.043,0.246-0.064c0.037-0.008,0.072-0.019,0.108-0.028l0.167,0.682
		C59.035,6.277,58.529,6.429,58.032,6.599 M58.514,7.754L58.514,7.754l-0.272-0.83c0.373-0.125,0.751-0.237,1.129-0.339l0.55,2.167
		c-0.061,0.016-0.12,0.034-0.181,0.05L59.57,8.19c-0.055-0.185-0.229-0.298-0.39-0.252c0,0-0.001,0-0.002,0.001
		c-0.072,0.021-0.133,0.071-0.171,0.143c-0.044,0.083-0.053,0.185-0.024,0.284l0.188,0.605c-0.078,0.024-0.156,0.048-0.233,0.073
		L58.514,7.754z M69.325,10.091C68.921,9.66,66.636,9.16,64.303,9.16s-4.618,0.5-5.021,0.932l-0.254-0.77
		c1.694-0.564,3.466-0.852,5.267-0.852h0.018c1.801,0,3.573,0.288,5.266,0.852L69.325,10.091z M70.093,7.754L70.093,7.754
		l-0.425,1.291c-0.075-0.025-0.154-0.049-0.232-0.073l0.188-0.607c0.028-0.097,0.019-0.2-0.025-0.283
		c-0.037-0.071-0.099-0.12-0.17-0.142c-0.001-0.001-0.002-0.001-0.003-0.001c-0.162-0.046-0.335,0.067-0.389,0.252l-0.17,0.611
		c-0.061-0.018-0.119-0.034-0.18-0.05l0.549-2.167c0.377,0.102,0.757,0.214,1.129,0.339L70.093,7.754z M70.698,6.64
		c-0.539-0.187-1.087-0.351-1.645-0.492l0.167-0.682c0.119,0.029,0.237,0.061,0.354,0.092l-0.078,0.3
		c0.112,0.031,0.224,0.063,0.336,0.094l0.084-0.298c0.114,0.033,0.228,0.067,0.341,0.103l-0.09,0.296
		c0.112,0.034,0.223,0.07,0.334,0.105l0.094-0.294c0.109,0.035,0.218,0.073,0.327,0.11L70.698,6.64z" />
    <path fill="#1351b4"
          d="M64.72,22.836c-0.038,0.026-0.073,0.057-0.108,0.085c-0.032,0.026-0.062,0.054-0.093,0.082
		c-0.056,0.056-0.11,0.114-0.157,0.177c-0.033,0.045-0.065,0.091-0.093,0.138c-0.248,0.419-0.171,1.002,0.051,1.38
		c-0.249-0.082-0.513-0.124-0.79-0.124c-0.265,0-0.466,0.038-0.555,0.059c0.002-0.206,0.061-1.041,0.879-1.674
		c0.091-0.025,0.177-0.045,0.262-0.062c0.003-0.001,0.006-0.001,0.009-0.001C64.343,22.85,64.543,22.829,64.72,22.836" />
    <path fill="#1351b4" d="M65.79,22.588c0.021,0.025,0.046,0.056,0.053,0.071c0.034,0.072-0.014,0.163-0.075,0.211
		s-0.148,0.055-0.223,0.016c-0.006-0.007-0.017-0.008-0.025-0.005c-0.014,0.005-0.021,0.02-0.018,0.033
		c0.019,0.083-0.01,0.168-0.072,0.218c-0.062,0.047-0.148,0.055-0.222,0.015c-0.008-0.006-0.018-0.008-0.027-0.004
		c-0.013,0.005-0.021,0.02-0.018,0.032c0.02,0.084-0.009,0.169-0.071,0.218c-0.032,0.023-0.07,0.037-0.109,0.041
		c-0.002,0-0.004-0.001-0.006-0.001c-0.035,0.001-0.073-0.006-0.108-0.024c-0.007-0.007-0.018-0.008-0.027-0.003
		c-0.013,0.004-0.019,0.019-0.016,0.031c0.02,0.084-0.009,0.169-0.073,0.217c-0.009,0.007-0.018,0.012-0.027,0.016
		c-0.015,0.009-0.029,0.015-0.045,0.019c-0.001,0-0.002,0-0.004,0.001c-0.014,0.003-0.029,0.006-0.044,0.006
		c-0.006,0-0.013-0.002-0.018-0.002c-0.011-0.001-0.021-0.002-0.032-0.004c-0.018-0.005-0.036-0.011-0.053-0.021
		c-0.008-0.005-0.021-0.007-0.029-0.001c-0.011,0.006-0.017,0.02-0.014,0.031c0.019,0.082-0.009,0.169-0.072,0.218
		c-0.036,0.027-0.082,0.039-0.127,0.038c-0.005,0-0.011,0-0.017-0.001c-0.025-0.003-0.051-0.009-0.075-0.021
		c0-0.039,0.002-0.077,0.007-0.116l0.158-0.123l0.594-0.458L65.79,22.588z" />
    <path fill="#1351b4"
          d="M65.608,24.236c-0.012,0.008-0.024,0.013-0.037,0.019H65.57c-0.012,0.004-0.026,0.006-0.039,0.006
		c-0.025,0-0.051-0.006-0.072-0.019c-0.009-0.006-0.021-0.009-0.029-0.005c-0.012,0.006-0.02,0.02-0.017,0.033
		c0.012,0.057-0.009,0.114-0.053,0.146c-0.042,0.03-0.102,0.034-0.149,0.007c-0.007-0.006-0.016-0.009-0.025-0.006
		c-0.015,0.005-0.022,0.019-0.02,0.034c0.011,0.05-0.02,0.118-0.068,0.153c-0.01,0.007-0.022,0.012-0.036,0.013
		c-0.005,0.003-0.011,0.003-0.018,0.003c-0.007,0.001-0.015,0.002-0.021,0.002c-0.01-0.001-0.02-0.002-0.027-0.003
		c-0.004-0.002-0.006-0.002-0.009-0.002c-0.012-0.001-0.021-0.005-0.032-0.009c-0.008-0.004-0.018-0.007-0.022-0.012v-0.042
		l0.94-0.677c0.013,0.021,0.024,0.045,0.028,0.051c0.016,0.05,0,0.095-0.045,0.127c-0.042,0.031-0.102,0.035-0.149,0.007
		c-0.007-0.007-0.015-0.007-0.024-0.007c-0.015,0.005-0.023,0.02-0.021,0.034C65.672,24.146,65.651,24.203,65.608,24.236" />
    <path fill="#1351b4"
          d="M63.364,24.928c0.157,0.266,0.236,0.275,0.529,0.312c0.041,0.006,0.086,0.01,0.135,0.017l0.022,0.003
		c0.169,0.023,0.343,0.048,0.496,0.048c0.043,0,0.082-0.003,0.118-0.006c0.026-0.004,0.049-0.008,0.071-0.014
		c0.008-0.002,0.017-0.003,0.024-0.005c0.026-0.008,0.051-0.016,0.072-0.028c0.001,0,0.002-0.001,0.003-0.002
		c0.023-0.01,0.042-0.023,0.06-0.039c0.01-0.009,0.021-0.015,0.027-0.022c0.014-0.018,0.022-0.038,0.032-0.059
		c0.006-0.015,0.01-0.03,0.016-0.046c0.004-0.023,0.01-0.048,0.01-0.076c0.065,0.012,0.134,0.018,0.203,0.018
		c0.379,0,0.719-0.166,0.872-0.254c-0.029,0.087-0.081,0.203-0.135,0.221c-0.015,0.006-0.024,0.02-0.026,0.035
		c-0.02,0.184-0.116,0.194-0.12,0.194c-0.01,0.001-0.021,0.007-0.027,0.015c-0.007,0.009-0.011,0.018-0.01,0.029
		c0.004,0.048,0.004,0.09,0.002,0.128v0.001c-0.005,0.102-0.027,0.174-0.054,0.228c-0.038,0.008-0.082,0.016-0.141,0.018
		c-0.02,0.001-0.04,0.003-0.063,0.003c-0.142,0-0.211-0.021-0.284-0.038c-0.075-0.021-0.153-0.043-0.306-0.043
		s-0.229,0.021-0.304,0.043c-0.074,0.019-0.144,0.038-0.285,0.038c-0.143,0-0.212-0.021-0.285-0.038
		c-0.075-0.021-0.152-0.043-0.306-0.043c-0.152,0-0.229,0.021-0.305,0.043c-0.073,0.019-0.144,0.038-0.285,0.038
		c-0.143,0-0.211-0.021-0.284-0.038c-0.023-0.007-0.047-0.013-0.072-0.02h0.001c-0.008-0.019-0.014-0.038-0.018-0.059
		c-0.009-0.044-0.012-0.094-0.012-0.145v-0.001c0-0.029,0.001-0.058,0.001-0.086c0.005-0.144,0.009-0.292-0.086-0.375
		c-0.152-0.134-0.127-0.264-0.102-0.326c0.077,0.048,0.203,0.083,0.347,0.124C63.091,24.777,63.312,24.84,63.364,24.928" />
    <path fill="#1351b4" d="M63.771,22.263c-0.018-0.064-0.048-0.118-0.08-0.159c0.21,0.029,0.408-0.001,0.564-0.083
		c-0.051,0.109-0.083,0.265,0.014,0.445c-0.042-0.011-0.088-0.017-0.136-0.017c-0.146,0-0.289,0.05-0.384,0.092
		C63.787,22.446,63.794,22.354,63.771,22.263" />
    <path fill="#1351b4" d="M70.056,20.307v-3.461H58.409v3.477c0,0.107,0.003,0.214,0.008,0.319c0.002,0.027,0.004,0.055,0.006,0.081
		c0.006,0.079,0.012,0.158,0.02,0.236c0.004,0.027,0.007,0.055,0.01,0.081c0.01,0.078,0.021,0.157,0.032,0.235
		c-0.003-0.021-0.005-0.04-0.008-0.059h2.521l0.228-0.163c0.007-0.006,0.015-0.008,0.022-0.008h0.336h5.438h0.336
		c0.008,0,0.016,0.003,0.022,0.008l0.229,0.163h2.379c0.044-0.293,0.068-0.591,0.068-0.895c0-0.006,0.001-0.013,0.003-0.016H70.056
		L70.056,20.307z M61.79,20.968h-0.206v-1.88c0-0.062,0.048-0.11,0.107-0.11h0.092l0,0h0.007V20.968z M65.473,20.968h-0.23
		c0.003-0.485-0.006-0.611-0.006-0.611c0-0.616-0.452-0.858-0.922-0.854c-0.384,0.004-0.934,0.237-0.934,0.854
		c0,0-0.008,0.126-0.006,0.611h-0.221c-0.004-0.562-0.003-0.778-0.003-0.778c0-0.632,0.532-1.167,1.162-1.167
		s1.161,0.533,1.161,1.163C65.475,20.186,65.476,20.406,65.473,20.968 M65.838,20.968h-0.266c0.003-0.562,0.003-0.782,0.003-0.782
		c0-0.685-0.578-1.263-1.262-1.265c-0.684,0.002-1.262,0.582-1.262,1.269c0,0,0,0.217,0.003,0.778h-0.26 M62.688,20.968h-0.8v-2.244
		v-0.102v-0.459c0.003-0.049,0.041-0.089,0.091-0.089h0.511h0.105c0.051,0,0.093,0.042,0.093,0.092v0.095h0.106h3.043h0.1h0.002
		v-0.059v-0.036c0-0.05,0.041-0.092,0.091-0.092h0.51h0.106c0.049,0,0.09,0.042,0.09,0.092v0.036h0.001v0.42v0.102v0.254v1.99h-0.8
		 M67.021,20.968h-0.185v-1.99h0.078c0.059,0,0.106,0.049,0.106,0.11V20.968L67.021,20.968z" />
    <path fill="#1351b4" d="M15.096,6.428c0,0.607-0.099,1.181-0.295,1.721c-0.197,0.541-0.484,1.012-0.862,1.414
		c-0.379,0.402-0.842,0.721-1.39,0.958s-1.171,0.355-1.868,0.355c-0.421,0-0.799-0.048-1.134-0.144
		c-0.336-0.096-0.637-0.221-0.902-0.375v3.082H5.722V2.268h2.348l0.144,0.527c0.293-0.218,0.641-0.407,1.042-0.567
		c0.402-0.16,0.858-0.24,1.369-0.24c0.697,0,1.322,0.117,1.873,0.351c0.551,0.235,1.019,0.553,1.405,0.955
		c0.386,0.402,0.682,0.873,0.886,1.413C14.993,5.248,15.096,5.821,15.096,6.428 M12.157,6.436c0-0.309-0.048-0.587-0.144-0.834
		s-0.227-0.459-0.391-0.635c-0.165-0.176-0.359-0.31-0.583-0.403s-0.461-0.14-0.711-0.14c-0.256,0-0.494,0.046-0.715,0.14
		S9.2,4.79,9.035,4.963c-0.164,0.173-0.294,0.383-0.387,0.63c-0.094,0.248-0.14,0.529-0.14,0.843c0,0.303,0.048,0.578,0.144,0.822
		c0.096,0.245,0.226,0.454,0.391,0.627c0.165,0.173,0.36,0.306,0.583,0.399c0.224,0.093,0.464,0.14,0.719,0.14
		c0.256,0,0.494-0.046,0.715-0.14c0.221-0.093,0.412-0.225,0.575-0.395c0.162-0.17,0.29-0.379,0.383-0.626
		C12.111,7.015,12.157,6.739,12.157,6.436" />
    <path fill="#1351b4"
          d="M15.452,6.436c0-0.606,0.111-1.18,0.335-1.721c0.224-0.54,0.541-1.011,0.95-1.413
		c0.41-0.402,0.901-0.721,1.474-0.958s1.21-0.355,1.912-0.355c0.703,0,1.343,0.117,1.921,0.352c0.577,0.234,1.072,0.554,1.484,0.958
		c0.413,0.405,0.732,0.877,0.959,1.417c0.226,0.541,0.339,1.114,0.339,1.721c0,0.612-0.113,1.189-0.339,1.729
		c-0.227,0.541-0.546,1.012-0.959,1.413c-0.412,0.402-0.908,0.719-1.488,0.95c-0.581,0.232-1.225,0.348-1.933,0.348
		c-0.692,0-1.324-0.117-1.896-0.351c-0.572-0.234-1.062-0.552-1.47-0.955c-0.407-0.402-0.724-0.873-0.95-1.413
		C15.565,7.616,15.452,7.043,15.452,6.436 M18.383,6.428c0,0.309,0.045,0.587,0.136,0.834c0.09,0.248,0.215,0.458,0.375,0.631
		c0.16,0.173,0.346,0.306,0.559,0.399s0.442,0.14,0.687,0.14c0.251,0,0.482-0.046,0.695-0.14s0.397-0.226,0.555-0.399
		c0.157-0.173,0.28-0.383,0.371-0.631s0.136-0.525,0.136-0.834c0-0.303-0.045-0.578-0.136-0.822s-0.216-0.454-0.375-0.627
		c-0.16-0.173-0.346-0.306-0.559-0.399s-0.442-0.14-0.688-0.14c-0.244,0-0.475,0.046-0.69,0.14
		c-0.215,0.093-0.401,0.225-0.559,0.395c-0.157,0.171-0.281,0.379-0.371,0.627C18.428,5.849,18.383,6.125,18.383,6.428" />
    <path fill="#1351b4" d="M31.366,2.268v2.476l-1.102,0.008c-0.617,0.005-1.089,0.177-1.413,0.515
		c-0.325,0.338-0.487,0.85-0.487,1.537v3.793h-2.931V2.268h2.348l0.192,0.647c0.255-0.181,0.556-0.334,0.901-0.459
		c0.347-0.125,0.754-0.188,1.223-0.188H31.366z" />
    <path fill="#1351b4" d="M32.976,1.972l0.91-1.956L35.979,0v2.268h2.203v2.435H35.97v2.571c0,0.208,0.023,0.378,0.068,0.511
		c0.045,0.133,0.11,0.239,0.195,0.315c0.085,0.077,0.186,0.131,0.3,0.16c0.114,0.029,0.241,0.044,0.379,0.044h1.365l-0.023,2.323
		h-1.621c-0.484,0-0.945-0.037-1.381-0.112c-0.438-0.075-0.817-0.229-1.143-0.463c-0.324-0.234-0.583-0.569-0.774-1.006
		c-0.191-0.436-0.287-1.017-0.287-1.741V4.703h-1.262V2.547L32.976,1.972z" />
    <path fill="#1351b4" d="M38.52,6.436c0-0.606,0.111-1.18,0.335-1.721c0.224-0.54,0.541-1.011,0.95-1.413
		c0.41-0.402,0.901-0.721,1.474-0.958s1.21-0.355,1.912-0.355s1.343,0.117,1.92,0.352c0.578,0.234,1.073,0.554,1.485,0.958
		c0.412,0.405,0.732,0.877,0.958,1.417c0.227,0.541,0.34,1.114,0.34,1.721c0,0.612-0.113,1.189-0.34,1.729
		c-0.226,0.541-0.546,1.012-0.958,1.413c-0.412,0.402-0.909,0.719-1.489,0.95c-0.58,0.232-1.225,0.348-1.932,0.348
		c-0.692,0-1.324-0.117-1.896-0.351c-0.572-0.234-1.062-0.552-1.47-0.955c-0.407-0.402-0.724-0.873-0.95-1.413
		C38.633,7.616,38.52,7.043,38.52,6.436 M41.449,6.428c0,0.309,0.046,0.587,0.136,0.834c0.091,0.248,0.216,0.458,0.376,0.631
		c0.159,0.173,0.346,0.306,0.559,0.399s0.442,0.14,0.687,0.14c0.25,0,0.481-0.046,0.695-0.14c0.213-0.093,0.397-0.226,0.555-0.399
		c0.157-0.173,0.28-0.383,0.371-0.631s0.136-0.525,0.136-0.834c0-0.303-0.045-0.578-0.136-0.822s-0.216-0.454-0.375-0.627
		c-0.16-0.173-0.347-0.306-0.56-0.399s-0.441-0.14-0.687-0.14c-0.244,0-0.475,0.046-0.69,0.14s-0.402,0.225-0.56,0.395
		c-0.156,0.171-0.28,0.379-0.371,0.627C41.495,5.849,41.449,6.125,41.449,6.428" />
    <path fill="#1351b4" d="M14.163,22.729h-2.355l-0.184-0.639c-0.41,0.271-0.865,0.484-1.365,0.639s-1.001,0.231-1.501,0.231
		c-0.474,0-0.898-0.066-1.273-0.199c-0.376-0.133-0.695-0.329-0.959-0.587s-0.466-0.573-0.606-0.946
		c-0.141-0.372-0.212-0.798-0.212-1.277c0-0.464,0.105-0.851,0.315-1.162c0.211-0.312,0.507-0.562,0.891-0.75
		c0.383-0.189,0.84-0.322,1.369-0.399c0.53-0.077,1.114-0.116,1.753-0.116c0.202,0,0.397,0.003,0.587,0.008
		c0.188,0.006,0.39,0.009,0.603,0.009v-0.392c-0.005-0.111-0.04-0.212-0.104-0.3s-0.149-0.162-0.256-0.224
		c-0.106-0.061-0.229-0.107-0.371-0.14c-0.141-0.031-0.291-0.048-0.451-0.048c-0.154,0-0.299,0.017-0.435,0.048
		c-0.136,0.032-0.253,0.076-0.352,0.132s-0.176,0.12-0.231,0.192c-0.057,0.071-0.084,0.145-0.084,0.219l-2.954,0.009
		c0.021-0.501,0.129-0.934,0.323-1.298s0.463-0.667,0.806-0.906c0.344-0.239,0.756-0.418,1.238-0.535
		c0.481-0.117,1.018-0.176,1.608-0.176c0.618,0,1.184,0.059,1.697,0.176s0.955,0.294,1.325,0.531c0.37,0.236,0.659,0.533,0.866,0.89
		c0.208,0.357,0.312,0.774,0.312,1.254V22.729z M9.779,20.733c0.149,0,0.297-0.016,0.443-0.048s0.283-0.074,0.411-0.128
		c0.128-0.053,0.244-0.118,0.348-0.195s0.183-0.158,0.235-0.243v-0.64c-0.091-0.005-0.194-0.008-0.312-0.008h-0.471
		c-0.261,0-0.497,0.01-0.707,0.028s-0.39,0.051-0.539,0.096c-0.148,0.045-0.264,0.107-0.343,0.188c-0.08,0.08-0.12,0.182-0.12,0.304
		c0,0.117,0.028,0.217,0.084,0.3c0.056,0.082,0.132,0.15,0.228,0.203c0.096,0.054,0.208,0.091,0.335,0.112
		C9.5,20.723,9.636,20.733,9.779,20.733" />
    <path fill="#1351b4"
          d="M15.324,11.479h2.923v8.049c0,0.175,0.011,0.315,0.031,0.419c0.021,0.104,0.055,0.184,0.101,0.239
		c0.045,0.056,0.104,0.093,0.176,0.112c0.071,0.019,0.16,0.027,0.267,0.027h0.432v2.42h-0.559c-0.677,0-1.232-0.05-1.669-0.148
		c-0.437-0.098-0.781-0.27-1.034-0.515c-0.253-0.244-0.428-0.571-0.523-0.979s-0.144-0.919-0.144-1.537V11.479z" />
    <path fill="#1351b4"
          d="M25.015,19.751h-2.363c0.171,0.272,0.392,0.482,0.663,0.631c0.271,0.149,0.566,0.224,0.886,0.224
		c0.245,0,0.45-0.013,0.615-0.04c0.165-0.026,0.308-0.062,0.427-0.107c0.12-0.045,0.229-0.097,0.323-0.155
		c0.097-0.059,0.194-0.123,0.296-0.192l1.581,1.693c-0.133,0.122-0.305,0.254-0.515,0.396c-0.211,0.141-0.454,0.272-0.73,0.395
		c-0.277,0.123-0.586,0.226-0.927,0.308c-0.341,0.083-0.711,0.124-1.109,0.124c-0.688,0-1.315-0.119-1.885-0.355
		c-0.57-0.237-1.059-0.559-1.466-0.967c-0.406-0.407-0.724-0.879-0.95-1.417c-0.226-0.537-0.339-1.109-0.339-1.717
		c0-0.606,0.112-1.18,0.335-1.721c0.224-0.54,0.541-1.012,0.951-1.417c0.409-0.404,0.9-0.726,1.473-0.962
		c0.572-0.237,1.204-0.355,1.896-0.355c0.585,0,1.122,0.07,1.608,0.212c0.487,0.141,0.904,0.342,1.25,0.603s0.615,0.578,0.807,0.95
		s0.287,0.788,0.287,1.245c0,0.352-0.048,0.686-0.144,1.003c-0.096,0.316-0.263,0.595-0.499,0.834
		c-0.237,0.239-0.557,0.432-0.958,0.575C26.126,19.68,25.622,19.751,25.015,19.751 M24.257,16.462c-0.336,0-0.651,0.088-0.946,0.264
		c-0.296,0.176-0.528,0.418-0.699,0.727h1.948c0.224,0,0.41-0.036,0.56-0.108c0.148-0.071,0.224-0.177,0.224-0.315
		c0-0.063-0.021-0.129-0.064-0.195s-0.107-0.128-0.195-0.184s-0.201-0.101-0.339-0.136C24.605,16.479,24.442,16.462,24.257,16.462" />
    <path fill="#1351b4"
          d="M36.284,13.787h1.373v1.956h-0.727c-0.122,0-0.239,0.016-0.352,0.048c-0.111,0.032-0.218,0.072-0.319,0.12
		c0.165,0.372,0.248,0.758,0.248,1.157c0,0.432-0.09,0.833-0.268,1.206c-0.179,0.373-0.437,0.697-0.774,0.974
		c-0.339,0.277-0.752,0.494-1.242,0.651c-0.489,0.156-1.049,0.235-1.677,0.235c-0.224,0-0.438-0.011-0.643-0.032
		s-0.4-0.053-0.587-0.096c-0.091,0.16-0.13,0.31-0.119,0.447c0,0.096,0.026,0.171,0.079,0.224c0.054,0.053,0.12,0.093,0.2,0.12
		c0.079,0.026,0.166,0.044,0.259,0.052c0.094,0.008,0.183,0.012,0.268,0.012h1.23c0.718,0,1.323,0.077,1.816,0.231
		c0.492,0.154,0.892,0.356,1.197,0.606c0.307,0.251,0.527,0.536,0.663,0.854c0.136,0.32,0.203,0.642,0.203,0.967
		c0,0.532-0.124,0.994-0.371,1.385c-0.248,0.392-0.583,0.716-1.006,0.975c-0.423,0.258-0.916,0.449-1.478,0.575
		c-0.562,0.125-1.159,0.188-1.792,0.188c-0.575,0-1.13-0.054-1.665-0.16s-1.008-0.269-1.418-0.487
		c-0.409-0.218-0.738-0.494-0.985-0.83c-0.248-0.335-0.372-0.731-0.372-1.189c0-0.261,0.087-0.539,0.26-0.834
		c0.173-0.296,0.398-0.576,0.675-0.843c-0.187-0.176-0.327-0.377-0.423-0.604c-0.096-0.226-0.145-0.464-0.145-0.714
		c0-0.362,0.095-0.708,0.284-1.038c0.188-0.33,0.427-0.647,0.715-0.95c-0.251-0.261-0.439-0.555-0.567-0.883
		c-0.128-0.327-0.191-0.675-0.191-1.042c0-0.426,0.088-0.829,0.264-1.21c0.176-0.38,0.431-0.713,0.767-0.998
		c0.335-0.284,0.745-0.511,1.229-0.679c0.484-0.167,1.038-0.251,1.66-0.251c0.416,0,0.802,0.039,1.158,0.115
		c0.356,0.078,0.682,0.186,0.975,0.324c0.196-0.149,0.427-0.282,0.69-0.399S35.943,13.792,36.284,13.787 M32.866,22.897h-2.084
		c-0.074,0.101-0.133,0.209-0.176,0.323c-0.042,0.114-0.063,0.238-0.063,0.371c0,0.16,0.047,0.293,0.14,0.399
		s0.224,0.192,0.392,0.256c0.167,0.063,0.367,0.109,0.599,0.136s0.483,0.04,0.755,0.04c0.554,0,0.983-0.075,1.289-0.224
		c0.307-0.149,0.459-0.344,0.459-0.583c0-0.165-0.045-0.294-0.136-0.388c-0.091-0.093-0.203-0.165-0.339-0.215
		c-0.136-0.051-0.278-0.083-0.428-0.096C33.125,22.904,32.989,22.897,32.866,22.897 M31.478,17.036c0,0.331,0.101,0.592,0.303,0.783
		s0.464,0.287,0.783,0.287c0.335,0,0.604-0.095,0.806-0.283c0.203-0.189,0.304-0.451,0.304-0.787c0-0.318-0.101-0.574-0.304-0.766
		c-0.202-0.192-0.471-0.288-0.806-0.288c-0.319,0-0.581,0.096-0.783,0.288C31.578,16.462,31.478,16.718,31.478,17.036" />
    <path fill="#1351b4" d="M43.891,14.401v2.476l-1.103,0.008c-0.617,0.006-1.089,0.177-1.413,0.516
		c-0.325,0.338-0.487,0.85-0.487,1.536v3.793h-2.93v-8.328h2.347l0.192,0.647c0.255-0.182,0.556-0.334,0.902-0.46
		c0.346-0.125,0.753-0.188,1.222-0.188H43.891z" />
    <path fill="#1351b4" d="M49.426,19.751h-2.363c0.17,0.272,0.392,0.482,0.662,0.631c0.272,0.149,0.567,0.224,0.887,0.224
		c0.245,0,0.45-0.013,0.615-0.04c0.164-0.026,0.307-0.062,0.427-0.107c0.12-0.045,0.228-0.097,0.323-0.155s0.194-0.123,0.296-0.192
		l1.581,1.693c-0.134,0.122-0.306,0.254-0.516,0.396c-0.21,0.141-0.453,0.272-0.73,0.395c-0.276,0.123-0.586,0.226-0.926,0.308
		c-0.341,0.083-0.711,0.124-1.11,0.124c-0.687,0-1.314-0.119-1.885-0.355c-0.569-0.237-1.058-0.559-1.465-0.967
		c-0.407-0.407-0.724-0.879-0.95-1.417c-0.227-0.537-0.34-1.109-0.34-1.717c0-0.606,0.112-1.18,0.336-1.721
		c0.224-0.54,0.54-1.012,0.95-1.417c0.41-0.404,0.901-0.726,1.474-0.962c0.571-0.237,1.204-0.355,1.896-0.355
		c0.585,0,1.121,0.07,1.608,0.212c0.487,0.141,0.903,0.342,1.25,0.603c0.346,0.261,0.614,0.578,0.807,0.95
		c0.191,0.372,0.287,0.788,0.287,1.245c0,0.352-0.048,0.686-0.144,1.003c-0.096,0.316-0.263,0.595-0.499,0.834
		c-0.237,0.239-0.557,0.432-0.959,0.575C50.537,19.68,50.032,19.751,49.426,19.751 M48.667,16.462c-0.335,0-0.65,0.088-0.946,0.264
		c-0.295,0.176-0.528,0.418-0.698,0.727h1.948c0.224,0,0.41-0.036,0.559-0.108c0.149-0.071,0.224-0.177,0.224-0.315
		c0-0.063-0.021-0.129-0.063-0.195c-0.043-0.066-0.108-0.128-0.195-0.184c-0.088-0.056-0.201-0.101-0.34-0.136
		C49.016,16.479,48.854,16.462,48.667,16.462" />
  </g>
</svg>